<?xml version="1.0" encoding="UTF-8" standalone="no"?>
<svg
   xmlns:dc="http://purl.org/dc/elements/1.1/"
   xmlns:cc="http://creativecommons.org/ns#"
   xmlns:rdf="http://www.w3.org/1999/02/22-rdf-syntax-ns#"
   xmlns:svg="http://www.w3.org/2000/svg"
   xmlns="http://www.w3.org/2000/svg"
   xmlns:sodipodi="http://sodipodi.sourceforge.net/DTD/sodipodi-0.dtd"
   xmlns:inkscape="http://www.inkscape.org/namespaces/inkscape"
   inkscape:version="1.0 (4035a4fb49, 2020-05-01)"
   sodipodi:docname="ibm-cloud-object-storage.svg"
   version="1.1"
   height="1250"
   width="843.04865"
   viewBox="0 0 270.4156 401"
   id="Layer_1">
  <metadata
     id="metadata29">
    <rdf:RDF>
      <cc:Work
         rdf:about="">
        <dc:format>image/svg+xml</dc:format>
        <dc:type
           rdf:resource="http://purl.org/dc/dcmitype/StillImage" />
      </cc:Work>
    </rdf:RDF>
  </metadata>
  <defs
     id="defs27" />
  <sodipodi:namedview
     inkscape:current-layer="Layer_1"
     inkscape:window-maximized="1"
     inkscape:window-y="-8"
     inkscape:window-x="-8"
     inkscape:cy="507.35294"
     inkscape:cx="-93.337428"
     inkscape:zoom="0.34"
     showgrid="false"
     id="namedview25"
     inkscape:window-height="1017"
     inkscape:window-width="1920"
     inkscape:pageshadow="2"
     inkscape:pageopacity="0"
     guidetolerance="10"
     gridtolerance="10"
     objecttolerance="10"
     borderopacity="1"
     bordercolor="#666666"
     pagecolor="#ffffff" />
  <style
     id="style2">.st0{fill:#013346}.st1{fill:#8cd211}.st2{fill:#20343e}.st3{fill:#5aaafa}</style>
  <path
     style="stroke-width:0.5"
     id="path4"
     d="m 4.7156,311.4 h 8.5 v 38.85 h -8.5 z m 16,0 h 18.25 c 7.35,0 12.45,2.4 12.45,9.7 0,3.75 -1.85,6.45 -5.3,8.2 4.75,1.35 7.15,4.95 7.15,9.9 0,7.85 -6.65,11.25 -13.8,11.25 h -18.75 z m 8.7,15.85 h 8.7 c 3.05,0 5.3,-1.35 5.3,-4.6 0,-3.75 -2.9,-4.45 -5.95,-4.45 h -8 z m 0,16.35 h 9.2 c 3.4,0 6.3,-1 6.3,-5.1 0,-3.9 -2.55,-5.6 -6.15,-5.6 h -9.35 z m 29.8,-32.2 h 11.95 l 9.05,26.75 h 0.15 l 8.7,-26.75 h 12.1 v 38.85 h -8 V 322.8 h -0.2 l -9.55,27.6 h -6.65 l -9.55,-27.25 h -0.15 v 27.25 h -7.85 z m 90.5,13.1 c -0.5,-3.9 -4.25,-6.8 -8.5,-6.8 -7.65,0 -10.55,6.45 -10.55,13.3 0,6.45 2.9,12.95 10.55,12.95 5.3,0 8.2,-3.6 8.85,-8.7 h 8.35 c -0.85,9.7 -7.5,15.85 -17.05,15.85 -12.1,0 -19.1,-9.05 -19.1,-20.3 -0.15,-11.4 6.8,-20.3 18.9,-20.3 8.5,0 15.7,4.95 16.85,13.95 h -8.3 z m 13.8,-13.1 h 7.65 v 38.85 h -7.65 z m 27.6,10.05 c 8.85,0 14.65,5.95 14.65,14.8 0,8.85 -5.8,14.8 -14.65,14.8 -8.85,0 -14.5,-5.95 -14.5,-14.8 -0.15,-9 5.65,-14.8 14.5,-14.8 z m 0,23.85 c 5.3,0 6.8,-4.6 6.8,-9.05 0,-4.6 -1.55,-9.05 -6.8,-9.05 -5.3,0 -6.8,4.6 -6.8,9.05 0,4.45 1.5,9.05 6.8,9.05 z m 46,4.95 h -7.35 v -3.9 h -0.15 c -2.05,3.25 -5.3,4.75 -8.7,4.75 -8.2,0 -10.2,-4.6 -10.2,-11.6 v -17.4 h 7.65 v 15.85 c 0,4.6 1.35,7 4.95,7 4.25,0 5.95,-2.4 5.95,-8 v -14.8 h 7.7 v 28.1 z m 25.9,-3.6 c -1.85,3.05 -5.1,4.45 -8.7,4.45 -8.5,0 -12.6,-7.35 -12.6,-15.15 0,-7.5 4.25,-14.65 12.45,-14.65 3.4,0 6.65,1.35 8.35,4.25 h 0.15 V 311.4 h 7.65 v 38.85 h -7.35 v -3.6 z m -6.65,-19.4 c -5.1,0 -6.8,4.45 -6.8,9.05 0,4.45 2.05,9.05 6.8,9.05 5.1,0 6.65,-4.45 6.65,-9.05 0,-4.8 -1.7,-9.05 -6.65,-9.05 z"
     class="st0" />
  <g
     transform="matrix(0.5,0,0,0.5,-0.0344,0)"
     id="g8">
    <path
       id="path6"
       d="m 11.2,746 c 1.2,-3.5 2.7,-6.7 5.2,-9.4 2.2,-2.7 5.2,-5 8.4,-6.7 3.5,-1.7 7.4,-2.5 11.9,-2.5 4.5,0 8.4,0.7 11.9,2.5 3.5,1.7 6.2,3.7 8.4,6.7 2.2,2.7 4,5.9 5.2,9.4 1.2,3.5 1.7,7.2 1.7,11.2 0,4 -0.5,7.7 -1.7,11.2 -1.2,3.5 -2.7,6.7 -5.2,9.4 -2.2,2.7 -5.2,5 -8.4,6.4 -3.5,1.7 -7.4,2.5 -11.9,2.5 -4.5,0 -8.4,-0.7 -11.9,-2.5 -3.5,-1.7 -6.2,-3.7 -8.4,-6.4 -2.2,-2.7 -4,-5.9 -5.2,-9.4 -1.2,-3.5 -1.7,-7.2 -1.7,-11.2 0,-4 0.7,-7.5 1.7,-11.2 z m 7,19.6 c 0.7,2.7 2,5.2 3.5,7.4 1.5,2.2 3.7,4 6.2,5.5 2.5,1.2 5.5,2 8.9,2 3.4,0 6.4,-0.7 8.9,-2 2.5,-1.2 4.5,-3.2 6.2,-5.5 1.5,-2.2 2.7,-4.7 3.5,-7.4 0.7,-2.7 1,-5.7 1,-8.4 0,-2.7 -0.2,-5.7 -1,-8.4 -0.7,-2.7 -2,-5.2 -3.5,-7.4 -1.5,-2.2 -3.7,-4 -6.2,-5.5 -2.5,-1.2 -5.5,-2 -8.9,-2 -3.4,0 -6.4,0.7 -8.9,2 -2.5,1.2 -4.5,3.2 -6.2,5.5 -1.5,2.2 -2.7,4.7 -3.5,7.4 -0.7,2.7 -1,5.7 -1,8.4 0,2.7 0.2,5.6 1,8.4 z M 78.9,728.9 V 750 h 0.2 c 1,-2.2 3,-4 5.2,-5 2.5,-1 5,-1.5 7.9,-1.5 3.2,0 5.9,0.5 8.2,1.7 2.2,1.2 4.2,2.7 5.9,4.7 1.5,2 2.7,4.2 3.5,6.9 0.7,2.5 1.2,5.5 1.2,8.2 0,3 -0.5,5.7 -1.2,8.2 -0.7,2.5 -2,5 -3.5,6.7 -1.5,2 -3.5,3.5 -5.9,4.5 -2.2,1 -5.2,1.7 -8.2,1.7 -1,0 -2.2,0 -3.5,-0.2 -1.2,-0.2 -2.5,-0.5 -3.7,-1 -1.2,-0.5 -2.5,-1.2 -3.5,-2 -1,-0.7 -2,-1.7 -2.7,-3 h -0.2 v 5.5 h -6.4 v -56.5 z m 24.3,30.2 c -0.5,-1.7 -1.2,-3.5 -2.2,-5 -1,-1.5 -2.2,-2.5 -4,-3.5 -1.7,-0.7 -3.5,-1.2 -5.7,-1.2 -2.2,0 -4.2,0.5 -5.7,1.2 -1.5,0.7 -3,2 -4,3.5 -1,1.5 -1.7,3.2 -2.2,5 -0.5,1.8 -0.7,3.7 -0.7,5.7 0,2 0.2,4 0.7,5.9 0.5,2 1.2,3.5 2.2,5 1,1.5 2.5,2.5 4,3.5 1.7,1 3.7,1.2 5.9,1.2 2.2,0 4.2,-0.5 5.9,-1.2 1.5,-1 2.7,-2 3.7,-3.5 1,-1.5 1.7,-3.2 2,-5 0.5,-2 0.7,-4 0.7,-5.9 0.1,-2 -0.1,-4 -0.6,-5.7 z m 20.3,39.4 c -1.7,1.7 -4.2,2.5 -7.2,2.5 -1.2,0 -2.2,0 -3.5,-0.2 v -5.7 h 2.7 c 1.5,0 2.5,-0.5 3,-1.2 0.5,-0.7 0.7,-2.2 0.7,-4.5 v -44.9 h 6.7 v 46.1 c 0.1,3.7 -0.6,6.4 -2.4,7.9 z M 119.3,737 v -8.2 h 6.7 v 8.2 z m 46.4,45.9 c -3,2.2 -6.9,3.5 -11.7,3.5 -3.2,0 -6.2,-0.5 -8.4,-1.5 -2.5,-1 -4.5,-2.5 -5.9,-4.5 -1.7,-2 -3,-4.2 -3.7,-6.9 -0.7,-2.7 -1.2,-5.5 -1.5,-8.7 0,-3.2 0.5,-5.9 1.5,-8.7 1,-2.5 2.2,-5 4,-6.7 1.7,-2 3.7,-3.5 6.2,-4.5 2.2,-1 5,-1.5 7.7,-1.5 3.7,0 6.7,0.7 9.2,2.2 2.5,1.5 4.2,3.5 5.7,5.7 1.5,2.2 2.5,5 3,7.7 0.5,2.7 0.7,5.5 0.7,7.9 h -30.7 c 0,1.7 0.2,3.5 0.7,5.2 0.5,1.7 1.2,3 2.2,4.2 1,1.2 2.5,2.2 4,3 1.7,0.7 3.5,1 5.7,1 3,0 5.2,-0.7 6.9,-2 1.7,-1.3 3,-3.2 3.7,-5.9 h 6.7 c -1.1,4.8 -3.1,8.3 -6,10.5 z m -1.8,-26.3 c -0.5,-1.5 -1.5,-2.7 -2.5,-3.7 -1,-1 -2.2,-1.7 -3.7,-2.5 -1.5,-0.5 -3,-1 -4.7,-1 -1.7,0 -3.2,0.2 -4.7,1 -1.5,0.5 -2.7,1.5 -3.7,2.5 -1,1 -1.7,2.2 -2.5,3.7 -0.5,1.5 -1,3 -1,4.5 h 23.6 c 0.2,-1.5 0,-3.2 -0.8,-4.5 z m 39.7,-4.9 c -1.7,-1.5 -4,-2.2 -6.9,-2.2 -2.5,0 -4.5,0.5 -6.2,1.2 -1.7,1 -3,2 -4,3.5 -1,1.5 -1.7,3.2 -2,5.2 -0.5,2 -0.7,4 -0.7,5.9 0,2 0.2,3.7 0.7,5.5 0.5,1.7 1.2,3.5 2,4.7 1,1.5 2.2,2.5 3.7,3.5 1.5,0.7 3.5,1.2 5.5,1.2 3.2,0 5.9,-1 7.7,-2.7 2,-1.7 3,-4.2 3.5,-7.4 h 6.9 c -0.7,5 -2.7,8.9 -5.7,11.7 -3,2.7 -7.2,4.2 -12.4,4.2 -3.2,0 -5.9,-0.5 -8.2,-1.5 -2.5,-1 -4.5,-2.5 -5.9,-4.2 -1.7,-1.7 -2.7,-4 -3.7,-6.7 -0.7,-2.5 -1.2,-5.5 -1.2,-8.4 0,-2.9 0.5,-5.9 1.2,-8.7 0.7,-2.7 2,-5 3.7,-6.9 1.7,-2 3.7,-3.5 5.9,-4.7 2.5,-1.2 5.2,-1.7 8.4,-1.7 2.2,0 4.5,0.2 6.4,0.7 2,0.5 3.7,1.5 5.5,2.5 1.5,1.2 2.7,2.7 4,4.5 1,1.7 1.7,4 2,6.2 h -6.9 c -0.3,-2 -1.6,-3.9 -3.3,-5.4 z m 35.7,-7.2 v 5.9 h -8.2 V 776 c 0,0.7 0,1.5 0.2,2 0.2,0.5 0.5,0.7 0.7,1 0.2,0.2 1,0.5 1.5,0.5 h 5.5 v 5.9 h -5.2 c -1.7,0 -3.2,0 -4.5,-0.2 -1.3,-0.2 -2.2,-0.7 -3,-1.2 -0.7,-0.7 -1.2,-1.5 -1.7,-2.7 -0.2,-1.2 -0.5,-2.7 -0.5,-4.7 v -26 h -6.9 v -5.9 h 6.9 v -12.4 h 6.7 v 12.4 h 8.5 z m 59,-7.9 c -2.5,-1.7 -5.7,-2.7 -9.7,-2.7 -1.5,0 -3.2,0.2 -4.7,0.5 -1.5,0.2 -3,0.7 -4,1.5 -1.2,0.7 -2.2,1.7 -3,3 -0.7,1.2 -1,2.7 -1,4.7 0,1.7 0.5,3.2 1.5,4.2 1,1 2.5,2 4.2,2.7 1.7,0.7 3.7,1.2 5.9,1.7 2.2,0.5 4.5,1 6.7,1.5 2.2,0.5 4.5,1.2 6.7,2 2.2,0.7 4.2,1.7 5.9,3 1.7,1.2 3,2.7 4.2,4.7 1,1.7 1.5,4.2 1.5,6.9 0,3 -0.7,5.7 -2,7.7 -1.2,2.2 -3,4 -5.2,5.2 -2.2,1.2 -4.5,2.2 -7.2,3 -2.7,0.5 -5.2,1 -7.9,1 -3.2,0 -6.2,-0.5 -8.9,-1.2 -2.7,-0.7 -5.2,-2 -7.4,-3.7 -2.2,-1.7 -3.7,-3.7 -5,-6.2 -1.2,-2.5 -2,-5.5 -2,-8.9 h 7.2 c 0,2.5 0.5,4.5 1.5,6.2 1,1.7 2.2,3.2 3.7,4.2 1.5,1 3.2,2 5.2,2.5 2,0.5 4,0.7 6.2,0.7 1.7,0 3.5,-0.2 5.2,-0.5 1.7,-0.2 3.2,-0.7 4.7,-1.7 1.5,-0.7 2.5,-1.7 3.2,-3.2 0.7,-1.2 1.2,-3 1.2,-5 0,-2 -0.5,-3.5 -1.5,-4.7 -1,-1.2 -2.5,-2.2 -4.2,-3 -1.7,-0.7 -3.7,-1.5 -5.9,-2 -2.2,-0.5 -4.5,-1 -6.7,-1.5 -2.2,-0.5 -4.5,-1 -6.7,-1.7 -2.2,-0.7 -4.2,-1.5 -5.9,-2.7 -1.7,-1 -3,-2.5 -4.2,-4.2 -1,-1.7 -1.5,-4 -1.5,-6.4 0,-3 0.5,-5.2 1.7,-7.4 1.2,-2 2.7,-3.7 4.7,-5.2 2,-1.2 4.2,-2.2 6.7,-3 2.5,-0.7 5,-1 7.7,-1 3,0 5.7,0.2 8.2,1 2.5,0.7 4.7,1.7 6.4,3.2 2,1.5 3.5,3.2 4.5,5.7 1,2.2 1.7,5 1.7,7.9 h -7 c -0.7,-3.9 -2.2,-6.9 -4.7,-8.8 z m 39.4,7.9 v 5.9 h -8.2 V 776 c 0,0.7 0,1.5 0.2,2 0.2,0.5 0.5,0.7 0.7,1 0.2,0.2 1,0.5 1.5,0.5 h 5.5 v 5.9 h -5 c -1.7,0 -3.2,0 -4.5,-0.2 -1.3,-0.2 -2.2,-0.7 -3,-1.2 -0.7,-0.7 -1.2,-1.5 -1.7,-2.7 -0.2,-1.2 -0.5,-2.7 -0.5,-4.7 v -26 h -6.9 v -5.9 h 6.9 v -12.4 h 6.7 v 12.4 h 8.3 z m 6.5,12.1 c 0.7,-2.7 2.2,-5 3.7,-6.9 1.7,-2 3.7,-3.5 6.2,-4.5 2.5,-1 5.5,-1.7 8.7,-1.7 3.2,0 6.2,0.5 8.7,1.7 2.5,1 4.5,2.7 6.2,4.5 1.7,2 3,4.2 3.7,6.9 0.7,2.7 1.2,5.5 1.2,8.4 0,2.9 -0.5,5.7 -1.2,8.4 -0.7,2.7 -2.2,5 -3.7,6.7 -1.7,2 -3.7,3.5 -6.2,4.5 -2.5,1 -5.2,1.7 -8.7,1.7 -3.2,0 -6.2,-0.5 -8.7,-1.7 -2.5,-1 -4.5,-2.5 -6.2,-4.5 -1.7,-2 -3,-4.2 -3.7,-6.7 -0.7,-2.5 -1.2,-5.5 -1.2,-8.4 0,-2.9 0.4,-5.9 1.2,-8.4 z m 6.9,15.2 c 0.7,2 1.5,3.5 2.7,5 1.2,1.2 2.5,2.2 4,3 1.5,0.7 3.2,1 5,1 1.7,0 3.5,-0.2 5,-1 1.5,-0.7 3,-1.7 4,-3 1.2,-1.2 2,-3 2.7,-5 0.7,-2 1,-4.2 1,-6.7 0,-2.5 -0.2,-4.7 -1,-6.7 -0.7,-2 -1.5,-3.5 -2.7,-5 -1.2,-1.2 -2.5,-2.2 -4,-3 -1.5,-0.7 -3.2,-1 -5,-1 -1.7,0 -3.5,0.2 -5,1 -1.5,0.7 -3,1.7 -4,3 -1.2,1.2 -2,3 -2.7,5 -0.7,2 -1,4.2 -1,6.7 0,2.5 0.3,4.7 1,6.7 z m 45.6,-27.3 v 8.7 h 0.2 c 1.7,-3.2 3.7,-5.7 5.9,-7.4 2.5,-1.5 5.5,-2.2 8.9,-2.2 v 7.2 c -2.7,0 -5,0.2 -6.9,1 -2,0.7 -3.5,1.7 -4.7,3.2 -1.2,1.5 -2,3.2 -2.5,5.2 -0.5,2 -0.7,4.5 -0.7,6.9 v 18.3 h -6.7 v -40.9 z m 56.5,40.9 c -1.2,0.7 -2.7,1 -5,1 -1.7,0 -3.2,-0.5 -4.2,-1.5 -1,-1 -1.5,-2.5 -1.5,-4.7 -1.7,2.2 -4,3.7 -6.4,4.7 -2.4,1 -5.2,1.5 -7.9,1.5 -1.7,0 -3.7,-0.2 -5.2,-0.7 -1.7,-0.5 -3.2,-1 -4.2,-2 -1.2,-1 -2.2,-2 -3,-3.5 -0.7,-1.5 -1,-3.2 -1,-5.2 0,-2.2 0.5,-4.2 1.2,-5.7 0.7,-1.5 1.7,-2.7 3.2,-3.7 1.2,-1 2.7,-1.7 4.5,-2 1.7,-0.5 3.5,-1 5.2,-1.2 1.7,-0.2 3.7,-0.7 5.2,-0.7 1.7,-0.2 3.2,-0.5 4.5,-0.7 1.3,-0.2 2.2,-0.7 3,-1.5 0.7,-0.7 1,-1.7 1,-3 0,-1.5 -0.2,-2.7 -0.7,-3.5 -0.5,-1 -1.2,-1.5 -2.2,-2 -1,-0.5 -1.7,-0.7 -3,-1 -1,-0.2 -2.2,-0.2 -3.2,-0.2 -3,0 -5.2,0.5 -7.2,1.7 -2,1 -3,3.2 -3,6.2 h -6.7 c 0,-2.5 0.7,-4.7 1.5,-6.4 1,-1.7 2.2,-3.2 3.7,-4.2 1.5,-1 3.5,-2 5.5,-2.2 2,-0.5 4.2,-0.7 6.4,-0.7 1.7,0 3.7,0.2 5.5,0.5 1.7,0.2 3.5,0.7 5,1.7 1.5,0.7 2.7,2 3.5,3.5 1,1.5 1.2,3.5 1.2,5.7 v 21.1 c 0,1.5 0,2.7 0.2,3.5 0.2,0.7 0.7,1 2,1 0.5,0 1.2,0 2,-0.2 v 4.7 h 0.1 z m -10.9,-21.1 c -0.7,0.7 -2,1 -3.2,1.5 -1.5,0.2 -2.7,0.5 -4.2,0.7 -1.5,0.2 -3,0.5 -4.5,0.7 -1.5,0.2 -3,0.5 -4.2,1.2 -1.2,0.5 -2.2,1.2 -3,2.2 -0.7,1 -1.2,2.2 -1.2,4 0,1 0.2,2 0.7,2.7 0.5,0.7 1,1.5 1.7,1.7 0.7,0.5 1.5,0.7 2.5,1 1,0.3 2,0.2 3,0.2 2.2,0 4.2,-0.2 5.7,-1 1.5,-0.7 3,-1.5 4,-2.2 1,-1 1.7,-2 2.2,-3 0.5,-1 0.7,-2 0.7,-3 v -6.9 h -0.2 z m 48.1,32.7 c -3,3.2 -7.9,5 -14.4,5 -2,0 -4,-0.2 -5.9,-0.7 -2,-0.5 -3.7,-1 -5.5,-2 -1.7,-1 -3,-2.2 -4,-3.7 -1,-1.5 -1.7,-3.5 -1.7,-5.7 h 6.7 c 0,1.2 0.5,2.2 1.2,3 0.7,0.7 1.5,1.5 2.7,2 1,0.5 2.2,1 3.5,1.2 1.2,0.2 2.5,0.2 3.5,0.2 2.2,0 4.2,-0.5 5.7,-1.2 1.5,-0.7 2.7,-1.7 3.7,-3.2 1,-1.2 1.7,-3 2.2,-5 0.5,-2 0.7,-4 0.7,-6.2 V 778 h -0.2 c -1.2,2.5 -3,4.5 -5.2,5.7 -2.2,1.2 -5,1.7 -7.4,1.7 -3,0 -5.7,-0.5 -7.9,-1.7 -2.2,-1 -4.2,-2.7 -5.7,-4.5 -1.5,-2 -2.7,-4 -3.5,-6.7 -0.7,-2.5 -1.2,-5.2 -1.2,-7.9 0,-2.5 0.2,-5 1,-7.4 0.7,-2.5 1.7,-5 3.2,-6.9 1.5,-2 3.5,-3.7 5.9,-5.2 2.5,-1.2 5.5,-2 8.9,-2 2.5,0 5,0.5 7.2,1.7 2.2,1.2 4,2.7 5,5.2 v -6 h 6.4 v 37.4 c -0.4,7.2 -1.9,12.4 -4.9,15.6 z m -8.6,-18.3 c 1.5,-1 2.7,-2.2 3.7,-3.7 1,-1.5 1.7,-3.2 2,-5.2 0.5,-2 0.7,-3.7 0.7,-5.7 0,-1.7 -0.2,-3.5 -0.7,-5.2 -0.5,-1.7 -1,-3.2 -2,-4.7 -1,-1.5 -2.2,-2.5 -3.7,-3.5 -1.5,-0.7 -3.2,-1.2 -5.5,-1.2 -2.2,0 -4,0.5 -5.5,1.2 -1.5,0.7 -2.7,2 -3.7,3.2 -1,1.5 -1.7,3 -2.2,4.7 -0.5,1.7 -0.7,3.7 -0.7,5.7 0,1.7 0.2,3.7 0.5,5.5 0.3,1.8 1,3.5 2,5 1,1.5 2,2.7 3.5,3.7 1.5,1 3.2,1.5 5.5,1.5 2.1,-0.1 4.6,-0.3 6.1,-1.3 z m 52.3,4.2 c -3,2.2 -6.9,3.5 -11.7,3.5 -3.2,0 -6.2,-0.5 -8.4,-1.5 -2.5,-1 -4.5,-2.5 -5.9,-4.5 -1.7,-2 -3,-4.2 -3.7,-6.9 -0.7,-2.7 -1.2,-5.5 -1.5,-8.7 0,-3.2 0.5,-5.9 1.5,-8.7 1,-2.5 2.2,-5 4,-6.7 1.7,-1.7 3.7,-3.5 6.2,-4.5 2.2,-1 5,-1.5 7.7,-1.5 3.7,0 6.7,0.7 9.2,2.2 2.5,1.5 4.2,3.5 5.7,5.7 1.5,2.2 2.5,5 3,7.7 0.5,2.7 0.7,5.5 0.7,7.9 H 510 c 0,1.7 0.2,3.5 0.7,5.2 0.5,1.7 1.2,3 2.2,4.2 1,1.2 2.5,2.2 4,3 1.7,0.7 3.5,1 5.7,1 3,0 5.2,-0.7 6.9,-2 1.7,-1.2 3,-3.2 3.7,-5.9 h 6.7 c -0.6,4.8 -2.6,8.3 -5.8,10.5 z m -1.5,-26.3 c -0.5,-1.5 -1.5,-2.7 -2.5,-3.7 -1,-1 -2.2,-1.7 -3.7,-2.5 -1.5,-0.5 -3,-1 -4.7,-1 -1.7,0 -3.2,0.2 -4.7,1 -1.5,0.5 -2.7,1.5 -3.7,2.5 -1,1 -1.7,2.2 -2.5,3.7 -0.5,1.5 -1,3 -1,4.5 h 23.6 c 0.2,-1.5 -0.3,-3.2 -0.8,-4.5 z"
       class="st0" />
  </g>
  <g
     transform="matrix(0.5,0,0,0.5,-0.0344,0)"
     id="g22">
    <path
       id="path10"
       d="m 450.3,360.2 -168.5,87.4 v -173 l 168.5,-88.2 z"
       class="st1" />
    <path
       id="path12"
       d="M 254.1,447.6 99,367.4 v -173 l 155.1,80.2 z"
       class="st2" />
    <path
       id="path14"
       d="M 534.1,137.3 370.9,53.5 316.6,81.1 476.2,163.2 v 293.4 l 57.9,-29.5 z"
       class="st3" />
    <path
       id="path16"
       d="M 450.3,389.7 268.4,484.2 0.9,346 0,428 266.6,564.4 450.3,470.8 Z"
       class="st1" />
    <path
       id="path18"
       d="M 340.6,38.3 266.6,0 0.9,137.3 0,316.6 72.2,353.1 V 177.4 Z"
       class="st2" />
    <path
       id="path20"
       d="M 268.4,252.4 126.6,179.2 288,96.3 428.9,169.4 Z"
       class="st3" />
  </g>
</svg>
